<svg xmlns="http://www.w3.org/2000/svg" width="128" height="128" viewBox="0 0 128 128">
  <rect width="128" height="128" rx="16" fill="#4a2930"/>
  <!-- .js from the coimbra.js logo pixel art, scaled to fit -->
  <g transform="translate(25, 16) scale(0.48) translate(-724, 0)">
    <!-- dot (.) -->
    <path d="M724.188 160.326V139.932H744.582V160.326H724.188Z" fill="#F9FF47"/>
    <!-- j -->
    <path d="M764.632 60.307H744.676V39.9123H785.027V180.044H765.07V200H744.676V179.605H764.632V60.307Z" fill="#F9FF47"/>
    <path d="M764.632 20.3947V0H785.027V20.3947H764.632Z" fill="#F9FF47"/>
    <!-- s -->
    <path d="M865.529 100.55H825.616V80.594H805.66V60.1993H825.616V40.2432H885.923V60.6379H826.055V80.1554H865.967V100.112H885.923V140.462H865.967V160.419H825.616V140.462H805.66V120.068H826.055V140.024H865.529V100.55Z" fill="#F9FF47"/>
  </g>
</svg>
