<svg width="886" height="200" viewBox="0 0 886 200" fill="none" xmlns="http://www.w3.org/2000/svg">
<path d="M694.349 160.957L683.883 151.16C682.547 149.824 681.731 148.636 681.434 147.597C681.137 146.558 680.989 145.816 680.989 145.37C680.692 144.183 680.172 143.589 679.43 143.589C678.539 143.589 677.945 144.183 677.649 145.37C677.649 145.816 677.5 146.632 677.203 147.82C676.906 148.859 675.941 150.121 674.309 151.605L668.742 156.949C665.921 159.473 662.73 161.328 659.167 162.516C655.604 163.852 651.893 164.52 648.034 164.52C643.877 164.52 639.795 163.778 635.787 162.293C631.927 160.957 628.513 158.879 625.544 156.059L614.411 145.593C611.442 142.624 609.141 139.358 607.508 135.796C606.023 132.233 605.281 128.522 605.281 124.662V118.205C605.281 114.791 606.023 111.376 607.508 107.962C609.141 104.548 611.442 101.505 614.411 98.8328L625.544 88.1447C628.216 85.6211 631.482 83.6171 635.342 82.1326C639.35 80.4997 643.358 79.6833 647.366 79.6833C650.335 79.6833 653.155 80.2028 655.827 81.2419C658.499 82.1326 660.874 83.6913 662.952 85.918C663.695 86.6602 664.437 87.6251 665.179 88.8127C666.07 89.8518 666.664 90.5198 666.96 90.8167C667.406 91.5589 667.925 91.93 668.519 91.93C669.41 91.93 669.855 91.4847 669.855 90.594C669.855 89.8518 669.633 89.0353 669.187 88.1447C668.89 87.254 668.742 85.918 668.742 84.1366V77.2339C668.742 75.0072 667.777 72.929 665.847 70.9992L659.167 64.5418C656.94 62.7604 654.491 61.8698 651.819 61.8698H616.415V41.8296H651.819C655.827 41.8296 659.761 42.5718 663.62 44.0563C667.48 45.3923 670.894 47.5447 673.863 50.5137L680.766 56.9711C686.852 62.7604 689.895 69.2921 689.895 76.5659V124.662C689.895 127.186 690.934 129.487 693.013 131.565L709.268 146.929L694.349 160.957ZM668.742 119.096C668.742 117.76 668.445 116.572 667.851 115.533C667.257 114.494 666.589 113.603 665.847 112.861L654.936 102.395C652.71 100.466 650.26 99.5008 647.588 99.5008C645.065 99.5008 642.69 100.466 640.463 102.395L629.552 112.861C627.474 114.642 626.435 116.72 626.435 119.096V124.662C626.435 127.186 627.474 129.487 629.552 131.565L640.463 141.808C642.541 143.886 644.916 144.925 647.588 144.925C650.409 144.925 652.858 143.886 654.936 141.808L665.847 131.565C667.777 129.635 668.742 127.557 668.742 125.33V119.096Z" fill="#F9FF47"/>
<path d="M585.855 61.6471C584.519 61.6471 583.182 61.8698 581.846 62.3151C580.51 62.7604 579.323 63.4284 578.284 64.3191L571.381 70.7765C569.451 72.7063 568.486 74.8588 568.486 77.2339V160.735H547.333V77.6792C547.333 75.1557 546.294 72.8548 544.215 70.7765L533.305 60.5338L548.223 46.5056L554.681 52.5177C556.462 54.299 557.427 55.7093 557.576 56.7484C557.873 57.6391 558.466 58.0844 559.357 58.0844C559.802 58.0844 560.322 57.6391 560.916 56.7484C561.658 55.7093 562.549 54.5217 563.588 53.1857C564.627 51.8497 565.814 50.4394 567.15 48.955C568.635 47.4705 570.268 46.2087 572.049 45.1696C575.018 43.5367 578.21 42.5718 581.624 42.2749C585.186 41.978 588.23 41.8296 590.753 41.8296H599.66V61.6471H585.855Z" fill="#F9FF47"/>
<path d="M519.495 126.444C519.495 129.859 518.678 133.273 517.046 136.687C515.561 139.953 513.409 142.922 510.588 145.594L499.232 156.059C496.263 159.028 492.849 161.181 488.989 162.517C485.13 164.001 481.196 164.743 477.188 164.743C473.18 164.743 469.246 164.001 465.386 162.517C461.527 161.181 458.113 159.028 455.144 156.059L444.01 145.594C441.041 142.922 438.74 139.953 437.108 136.687C435.623 133.273 434.881 129.859 434.881 126.444V2.19531H456.034V42.2757C456.034 43.4632 455.886 44.6508 455.589 45.8384C455.441 46.8775 455.292 47.6197 455.144 48.0651C454.995 48.2135 454.921 48.5104 454.921 48.9557C454.921 49.698 455.218 50.1433 455.812 50.2917H456.257C456.999 50.2917 457.593 49.9206 458.038 49.1784C458.335 48.7331 458.706 48.2135 459.152 47.6197C459.597 46.8775 460.191 46.1353 460.933 45.393C463.011 42.8694 465.535 41.0139 468.504 39.8263C471.473 38.4903 474.59 37.8223 477.856 37.8223C481.716 37.8223 485.501 38.5645 489.212 40.049C492.923 41.5334 496.115 43.5375 498.787 46.061L510.588 56.9718C513.557 59.7923 515.784 62.9839 517.268 66.5466C518.901 70.1093 519.718 73.7462 519.718 77.4573L519.495 126.444ZM498.341 77.68C498.341 75.008 497.377 72.707 495.447 70.7773L484.536 60.5345C482.309 58.6047 479.86 57.6398 477.188 57.6398C474.664 57.6398 472.289 58.6047 470.063 60.5345L459.152 70.7773C457.074 72.8555 456.034 75.1564 456.034 77.68V125.554C456.034 127.929 457.074 130.007 459.152 131.788L470.063 142.031C471.992 143.961 474.367 144.926 477.188 144.926C480.157 144.926 482.606 143.961 484.536 142.031L495.447 131.788C497.377 129.859 498.341 127.78 498.341 125.554V77.68Z" fill="#F9FF47"/>
<path d="M390.882 160.734V77.6785C390.882 75.0065 389.918 72.7056 387.988 70.7758L376.854 60.533C374.628 58.6032 372.846 57.6383 371.51 57.6383C370.62 57.6383 369.729 57.9352 368.838 58.529C368.096 58.9743 367.205 59.6423 366.166 60.533L355.255 70.7758C353.326 72.7056 352.361 74.858 352.361 77.2332V160.734H330.985V77.4558C330.985 74.9322 330.02 72.7056 328.09 70.7758L317.179 60.533C314.952 58.6032 313.171 57.6383 311.835 57.6383C310.944 57.6383 310.054 57.9352 309.163 58.529C308.421 58.9743 307.53 59.6423 306.491 60.533L295.358 70.7758C293.428 73.0025 292.463 75.2291 292.463 77.4558V160.734H271.309V77.6785C271.309 75.1549 270.27 72.854 268.192 70.7758L257.281 60.533L272.2 46.5049L278.657 52.5169C280.439 54.2983 281.404 55.7085 281.552 56.7476C281.849 57.6383 282.443 58.0837 283.333 58.0837C283.779 58.0837 284.15 57.7868 284.447 57.193C284.744 56.4507 285.189 55.5601 285.783 54.521C286.525 53.3334 287.416 51.9232 288.455 50.2902C289.642 48.6573 291.35 46.8018 293.576 44.7235C296.1 42.3484 298.846 40.6413 301.815 39.6022C304.784 38.4146 307.901 37.8208 311.167 37.8208C314.73 37.8208 318.292 38.563 321.855 40.0475C325.418 41.3835 328.758 43.536 331.875 46.5049L338.555 52.5169C340.337 54.2983 341.302 55.7085 341.45 56.7476C341.747 57.6383 342.341 58.0837 343.231 58.0837C343.677 58.0837 344.048 57.7868 344.345 57.193C344.642 56.4507 345.087 55.5601 345.681 54.521C346.275 53.3334 347.165 51.9232 348.353 50.2902C349.54 48.6573 351.173 46.8018 353.251 44.7235C355.775 42.3484 358.521 40.6413 361.49 39.6022C364.459 38.4146 367.576 37.8208 370.842 37.8208C378.561 37.8208 385.538 40.7155 391.773 46.5049L402.907 56.9703C406.024 59.7908 408.325 62.9824 409.809 66.5451C411.294 70.1078 412.036 73.7447 412.036 77.4558V160.734H390.882Z" fill="#F9FF47"/>
<path d="M217.139 22.0128V2.19531H238.293V22.0128H217.139ZM217.139 160.735V61.6479H203.111V41.8303H238.293V160.735H217.139Z" fill="#F9FF47"/>
<path d="M189.421 126.447C189.421 129.862 188.604 133.276 186.971 136.69C185.487 140.104 183.334 143.073 180.514 145.597L169.158 156.062C162.626 161.852 155.278 164.746 147.114 164.746C143.106 164.746 139.172 164.004 135.312 162.52C131.453 161.184 128.038 159.031 125.069 156.062L113.936 145.597C107.85 139.956 104.807 133.573 104.807 126.447V77.4602C104.807 73.7491 105.549 70.1121 107.033 66.5494C108.666 62.9867 110.967 59.7952 113.936 56.9747L125.069 46.5093C128.038 43.6888 131.453 41.6106 135.312 40.2745C139.172 38.7901 143.106 38.0479 147.114 38.0479C151.122 38.0479 155.056 38.7901 158.915 40.2745C162.775 41.6106 166.189 43.6888 169.158 46.5093L180.514 56.9747C183.483 59.7952 185.71 62.9867 187.194 66.5494C188.827 70.1121 189.643 73.7491 189.643 77.4602L189.421 126.447ZM168.267 77.6829C168.267 75.0108 167.302 72.7099 165.373 70.7801L154.462 60.5374C152.235 58.6076 149.786 57.6427 147.114 57.6427C144.59 57.6427 142.215 58.6076 139.988 60.5374L129.078 70.7801C126.999 72.8584 125.96 75.1593 125.96 77.6829V125.557C125.96 127.932 126.999 130.01 129.078 131.791L139.988 142.034C141.918 143.964 144.293 144.929 147.114 144.929C150.083 144.929 152.532 143.964 154.462 142.034L165.373 131.791C167.302 129.862 168.267 127.783 168.267 125.557V77.6829Z" fill="#F9FF47"/>
<path d="M84.8368 85.0309H63.4606V77.6829C63.4606 75.0108 62.4957 72.7099 60.5659 70.7801L49.6551 60.5374C47.5769 58.6076 45.1275 57.6427 42.307 57.6427C39.635 57.6427 37.2599 58.6076 35.1816 60.5374L24.2709 70.7801C22.1926 72.8584 21.1535 75.1593 21.1535 77.6829V125.557C21.1535 127.932 22.1926 130.01 24.2709 131.791L35.1816 142.034C37.2599 143.964 39.635 144.929 42.307 144.929C45.1275 144.929 47.5769 143.964 49.6551 142.034L60.5659 131.791C62.4957 129.862 63.4606 127.783 63.4606 125.557V117.763H84.6141V126.447C84.6141 129.862 83.7976 133.276 82.1647 136.69C80.6803 139.956 78.5278 142.925 75.7073 145.597L64.3512 156.062C61.3823 159.031 57.9681 161.184 54.1085 162.52C50.2489 164.004 46.3151 164.746 42.307 164.746C38.299 164.746 34.3652 164.004 30.5056 162.52C26.7945 161.184 23.3802 159.031 20.2628 156.062L9.12942 145.597C3.04314 139.956 0 133.573 0 126.447V77.4602C0 73.7491 0.742229 70.1121 2.22669 66.5494C3.85959 62.9867 6.1605 59.7952 9.12942 56.9747L20.2628 46.5093C23.3802 43.6888 26.7945 41.6106 30.5056 40.2745C34.3652 38.7901 38.299 38.0479 42.307 38.0479C46.3151 38.0479 50.2489 38.7901 54.1085 40.2745C57.9681 41.6106 61.3823 43.6888 64.3512 46.5093L75.7073 56.9747C78.6763 59.7952 80.9029 62.9867 82.3874 66.5494C84.0203 70.1121 84.8368 73.7491 84.8368 77.4602V85.0309Z" fill="#F9FF47"/>
<path d="M865.529 100.55H825.616V80.594H805.66V60.1993H825.616V40.2432H885.923V60.6379H826.055V80.1554H865.967V100.112H885.923V140.462H865.967V160.419H825.616V140.462H805.66V120.068H826.055V140.024H865.529V100.55Z" fill="#F9FF47"/>
<path d="M764.632 60.307H744.676V39.9123H785.027V180.044H765.07V200H744.676V179.605H764.632V60.307ZM764.632 20.3947V0H785.027V20.3947H764.632Z" fill="#F9FF47"/>
<path d="M724.188 160.326V139.932H744.582V160.326H724.188Z" fill="#F9FF47"/>
</svg>
